<svg width="232" height="232" viewBox="0 0 232 232" fill="none" xmlns="http://www.w3.org/2000/svg">
<g clip-path="url(#clip0_6_76)">
<path d="M116 232C180.065 232 232 180.065 232 116C232 51.935 180.065 0 116 0C51.935 0 0 51.935 0 116C0 180.065 51.935 232 116 232Z" fill="#D2483D"/>
<path d="M193.333 116L69.6149 177.883L122.84 231.794C172.171 228.925 213.222 195.234 227.024 149.691L193.333 116Z" fill="#9E231D"/>
<path d="M113.583 135.399C129.155 135.399 141.778 122.776 141.778 107.204C141.778 91.6327 129.155 79.0095 113.583 79.0095C98.0117 79.0095 85.3885 91.6327 85.3885 107.204C85.3885 122.776 98.0117 135.399 113.583 135.399Z" fill="#E39D46"/>
<path d="M113.583 138.523C96.3144 138.523 82.2639 124.473 82.2639 107.203C82.2639 89.9339 96.3136 75.8843 113.583 75.8843C130.853 75.8843 144.902 89.9339 144.902 107.203C144.902 124.473 130.853 138.523 113.583 138.523ZM113.583 82.1342C99.76 82.1342 88.5131 93.3804 88.5131 107.204C88.5131 121.028 99.7592 132.274 113.583 132.274C127.407 132.274 138.653 121.028 138.653 107.204C138.653 93.3804 127.407 82.1342 113.583 82.1342Z" fill="#F7CA68"/>
<path d="M113.583 121.302C121.369 121.302 127.68 114.99 127.68 107.204C127.68 99.4185 121.369 93.1069 113.583 93.1069C105.797 93.1069 99.4858 99.4185 99.4858 107.204C99.4858 114.99 105.797 121.302 113.583 121.302Z" fill="#E39D46"/>
<path d="M113.583 124.425C104.088 124.425 96.3612 116.699 96.3612 107.204C96.3612 97.708 104.088 89.9817 113.583 89.9817C123.079 89.9817 130.805 97.708 130.805 107.204C130.805 116.699 123.079 124.425 113.583 124.425ZM113.583 96.2308C107.533 96.2308 102.61 101.154 102.61 107.204C102.61 113.254 107.533 118.176 113.583 118.176C119.633 118.176 124.556 113.254 124.556 107.204C124.556 101.154 119.633 96.2308 113.583 96.2308Z" fill="#F7CA68"/>
<path d="M113.583 79.0095C113.521 79.0095 113.459 79.0142 113.396 79.0142V135.393C113.459 135.394 113.521 135.398 113.583 135.398C129.154 135.398 141.778 122.775 141.778 107.203C141.778 91.6328 129.154 79.0095 113.583 79.0095Z" fill="#C46116"/>
<path d="M113.583 75.885C113.521 75.885 113.459 75.8897 113.396 75.8897V82.1389C113.459 82.1381 113.521 82.1342 113.583 82.1342C127.406 82.1342 138.653 93.3803 138.653 107.204C138.653 121.028 127.407 132.274 113.583 132.274C113.521 132.274 113.459 132.27 113.396 132.27V138.519C113.459 138.519 113.521 138.523 113.583 138.523C130.852 138.523 144.902 124.474 144.902 107.204C144.902 89.9347 130.853 75.885 113.583 75.885Z" fill="#D89221"/>
<path d="M113.583 93.1069C113.52 93.1069 113.459 93.1155 113.396 93.1163V121.292C113.46 121.293 113.52 121.302 113.583 121.302C121.369 121.302 127.68 114.99 127.68 107.204C127.68 99.4186 121.369 93.1069 113.583 93.1069Z" fill="#C46116"/>
<path d="M113.583 89.9817C113.521 89.9817 113.459 89.9856 113.396 89.9864V96.2402C113.459 96.2394 113.52 96.2308 113.583 96.2308C119.633 96.2308 124.556 101.154 124.556 107.204C124.556 113.254 119.633 118.176 113.583 118.176C113.52 118.176 113.459 118.168 113.396 118.167V124.421C113.459 124.422 113.521 124.425 113.583 124.425C123.079 124.425 130.805 116.699 130.805 107.204C130.805 97.708 123.079 89.9817 113.583 89.9817Z" fill="#D89221"/>
<path d="M77.3333 141.778C91.57 141.778 103.111 130.237 103.111 116C103.111 101.763 91.57 90.2222 77.3333 90.2222C63.0966 90.2222 51.5555 101.763 51.5555 116C51.5555 130.237 63.0966 141.778 77.3333 141.778Z" fill="#E39D46"/>
<path d="M77.3333 144.902C61.3964 144.902 48.431 131.937 48.431 116C48.431 100.063 61.3964 87.0977 77.3333 87.0977C93.2702 87.0977 106.236 100.063 106.236 116C106.236 131.937 93.2702 144.902 77.3333 144.902ZM77.3333 93.3468C64.8428 93.3468 54.6801 103.51 54.6801 116C54.6801 128.491 64.8428 138.653 77.3333 138.653C89.8238 138.653 99.9865 128.491 99.9865 116C99.9865 103.51 89.8238 93.3468 77.3333 93.3468Z" fill="#F7CA68"/>
<path d="M77.3334 128.889C84.4517 128.889 90.2222 123.118 90.2222 116C90.2222 108.882 84.4517 103.111 77.3334 103.111C70.215 103.111 64.4445 108.882 64.4445 116C64.4445 123.118 70.215 128.889 77.3334 128.889Z" fill="#E39D46"/>
<path d="M77.3334 132.014C68.5033 132.014 61.3199 124.83 61.3199 116C61.3199 107.17 68.5033 99.9866 77.3334 99.9866C86.1634 99.9866 93.3468 107.17 93.3468 116C93.3468 124.83 86.1634 132.014 77.3334 132.014ZM77.3334 106.236C71.9489 106.236 67.569 110.616 67.569 116C67.569 121.384 71.9489 125.764 77.3334 125.764C82.7178 125.764 87.0977 121.384 87.0977 116C87.0977 110.616 82.7178 106.236 77.3334 106.236Z" fill="#F7CA68"/>
<path d="M148.222 154.667C166.018 154.667 180.444 140.24 180.444 122.444C180.444 104.649 166.018 90.2222 148.222 90.2222C130.426 90.2222 116 104.649 116 122.444C116 140.24 130.426 154.667 148.222 154.667Z" fill="#E39D46"/>
<path d="M148.222 157.791C128.732 157.791 112.875 141.935 112.875 122.444C112.875 102.954 128.732 87.0977 148.222 87.0977C167.713 87.0977 183.569 102.954 183.569 122.444C183.569 141.935 167.713 157.791 148.222 157.791ZM148.222 93.3468C132.178 93.3468 119.125 106.4 119.125 122.444C119.125 138.489 132.178 151.542 148.222 151.542C164.267 151.542 177.32 138.489 177.32 122.444C177.32 106.4 164.267 93.3468 148.222 93.3468Z" fill="#F7CA68"/>
<path d="M148.222 141.973C159.008 141.973 167.751 133.23 167.751 122.444C167.751 111.659 159.008 102.916 148.222 102.916C137.437 102.916 128.694 111.659 128.694 122.444C128.694 133.23 137.437 141.973 148.222 141.973Z" fill="#E39D46"/>
<path d="M148.222 145.098C135.732 145.098 125.569 134.935 125.569 122.444C125.569 109.954 135.732 99.7913 148.222 99.7913C160.713 99.7913 170.875 109.954 170.875 122.444C170.875 134.935 160.713 145.098 148.222 145.098ZM148.222 106.04C139.177 106.04 131.818 113.4 131.818 122.444C131.818 131.489 139.177 138.848 148.222 138.848C157.267 138.848 164.626 131.489 164.626 122.444C164.626 113.4 157.267 106.04 148.222 106.04Z" fill="#F7CA68"/>
<path d="M148.222 128.889C151.781 128.889 154.667 126.004 154.667 122.444C154.667 118.885 151.781 116 148.222 116C144.663 116 141.778 118.885 141.778 122.444C141.778 126.004 144.663 128.889 148.222 128.889Z" fill="#E67E22"/>
<path d="M148.222 132.014C142.946 132.014 138.653 127.721 138.653 122.445C138.653 117.168 142.946 112.875 148.222 112.875C153.499 112.875 157.791 117.168 157.791 122.445C157.791 127.721 153.499 132.014 148.222 132.014ZM148.222 119.125C146.391 119.125 144.902 120.614 144.902 122.445C144.902 124.276 146.391 125.764 148.222 125.764C150.053 125.764 151.542 124.276 151.542 122.445C151.542 120.614 150.053 119.125 148.222 119.125Z" fill="#F7CA68"/>
<path d="M193.333 116C193.333 158.71 158.71 193.333 116 193.333C73.2901 193.333 38.6667 158.71 38.6667 116H193.333Z" fill="#F0DEB4"/>
<path d="M113.396 116V193.285C114.261 193.314 115.128 193.333 116 193.333C158.71 193.333 193.333 158.71 193.333 116H113.396Z" fill="#D5C295"/>
<path d="M154.667 93.3467C152.941 93.3467 151.542 91.9477 151.542 90.2221V38.6666C151.542 36.941 152.941 35.542 154.667 35.542C156.392 35.542 157.791 36.941 157.791 38.6666V90.2221C157.791 91.9477 156.392 93.3467 154.667 93.3467Z" fill="#F7CA68"/>
<path d="M141.778 106.236C140.052 106.236 138.653 104.837 138.653 103.111V51.5555C138.653 49.8299 140.052 48.4309 141.778 48.4309C143.503 48.4309 144.902 49.8299 144.902 51.5555V103.111C144.902 104.837 143.503 106.236 141.778 106.236Z" fill="#F7CA68"/>
<path d="M154.667 55.4614H51.5556C49.398 55.4614 47.6498 53.7132 47.6498 51.5556C47.6498 49.3981 49.398 47.6499 51.5556 47.6499H154.667C156.824 47.6499 158.572 49.3981 158.572 51.5556C158.572 53.7132 156.824 55.4614 154.667 55.4614Z" fill="#D5C295"/>
<path d="M167.556 42.5724H64.4444C62.2869 42.5724 60.5387 40.8242 60.5387 38.6667C60.5387 36.5092 62.2869 34.761 64.4444 34.761H167.556C169.713 34.761 171.461 36.5092 171.461 38.6667C171.461 40.8242 169.713 42.5724 167.556 42.5724Z" fill="#D5C295"/>
<path d="M154.667 47.6499H115.74V55.4614H154.667C156.824 55.4614 158.572 53.7132 158.572 51.5556C158.572 49.3981 156.824 47.6499 154.667 47.6499Z" fill="#BCA77E"/>
<path d="M167.556 34.761H115.74V42.5724H167.556C169.713 42.5724 171.461 40.8242 171.461 38.6667C171.461 36.5092 169.713 34.761 167.556 34.761Z" fill="#BCA77E"/>
</g>
<defs>
<clipPath id="clip0_6_76">
<rect width="232" height="232" fill="white"/>
</clipPath>
</defs>
</svg>
